<?xml version="1.0" encoding="utf-8"?>
<!-- Generator: Adobe Illustrator 14.0.0, SVG Export Plug-In . SVG Version: 6.00 Build 43363)  -->
<!DOCTYPE svg PUBLIC "-//W3C//DTD SVG 1.1//EN" "http://www.w3.org/Graphics/SVG/1.1/DTD/svg11.dtd">
<svg version="1.1" id="Layer_2" xmlns="http://www.w3.org/2000/svg" xmlns:xlink="http://www.w3.org/1999/xlink" x="0px" y="0px"
	 width="4320px" height="4320px" viewBox="0 0 4320 4320" enable-background="new 0 0 4320 4320" xml:space="preserve">
<g>
	<g>
		<path fill="#7C6F60" d="M525.801,1731.498C488.788,1712.15,436.212,1705,414.761,1705c-21.451,0-74.026,7.15-111.04,26.498
			c-7.294,5.037-12.437,13.302-15.221,22.81c-2.23-0.526-4.481-0.791-6.707-0.79c-3.412,0-6.766,0.612-9.888,1.823
			c-2.341,0.908-4.551,2.154-6.546,3.726c-2.994,2.356-5.498,5.454-7.228,9.175c-1.733,3.721-2.688,8.053-2.687,12.855
			c0,1.942,0.155,3.962,0.474,6.055c0.931,6.089,3.255,12.022,6.518,17.519c2.45,4.122,5.433,8.001,8.793,11.517
			c3.051,3.19,6.415,6.08,9.984,8.571c-0.935,1.769-1.812,3.569-2.622,5.398c-2.083,4.703-3.735,9.583-4.87,14.517
			c-0.242,1.054-0.459,2.109-0.653,3.167c-2.713,0.812-5.161,2.182-7.275,3.93c-1.689,1.396-3.171,3.03-4.447,4.83
			c-1.914,2.701-3.367,5.774-4.353,9.038c-0.984,3.265-1.5,6.724-1.5,10.213c0,3.673,0.573,7.384,1.81,10.918
			c0.928,2.649,2.232,5.2,3.949,7.532c1.288,1.749,2.807,3.374,4.56,4.819c2.629,2.169,5.784,3.927,9.426,5.126
			c3.644,1.201,7.769,1.846,12.371,1.846c5.213,0,11.042-0.824,17.545-2.612c2.393-0.658,4.879-1.448,7.459-2.375
			c0.969,1.456,1.983,2.452,3.023,2.841c7.571,2.839,67.652,6.31,99.122,6.31s91.551-3.47,99.122-6.31
			c7.571-2.839,13.723-37.591,11.672-50.052c-25.636-7.529-35.699-15.491-41.814-31.966c-6.49-17.479-18.004-71.009-16.929-86.414
			c2.006-0.214,3.939-0.433,5.783-0.651c15.811-1.872,14.237,12.416,11.76,15.358c-0.025,0.033-0.053,0.063-0.08,0.092
			c-0.566,0.646-1.117,1.304-1.653,1.975c-3.264,4.055-6.023,8.511-8.084,13.199c14.578,17.941,51.602,27.358,65.078,27.455
			c1.872-4.864,3.045-10.076,3.546-15.362C544.884,1759.443,538.714,1740.415,525.801,1731.498z M414.761,1738.648
			c11.567,0,24.439-0.692,36.343-1.657c0.085,4.474-0.61,11.272-1.792,19.168c-9.457-6.368-21.468-10.188-34.55-10.188
			s-25.093,3.819-34.55,10.188c-1.183-7.896-1.878-14.694-1.792-19.168C390.322,1737.957,403.195,1738.648,414.761,1738.648z
			 M279.51,1855.188c0-0.822,0.796-0.75,1.17-0.702c0.689,0.088,1.404,0.227,2.147,0.425c1.423,0.378,2.947,0.97,4.567,1.82
			c3.112,1.636,5.679,3.301,7.764,4.944c1.564,1.232,2.857,2.453,3.912,3.638c1.583,1.777,2.629,3.472,3.28,5.034
			c0.65,1.564,0.914,2.998,0.916,4.323c-0.001,1.438-0.313,2.761-0.873,3.979c-0.419,0.913-0.981,1.763-1.659,2.526
			c-1.014,1.145-2.291,2.088-3.681,2.73c-1.391,0.646-2.888,0.989-4.347,0.988c-0.812,0-1.614-0.104-2.397-0.321
			c-1.175-0.326-2.311-0.896-3.405-1.804c-1.092-0.91-2.147-2.17-3.08-3.916c-1.536-2.88-2.657-5.962-3.397-9.204
			c-0.739-3.24-1.095-6.638-1.095-10.129C279.332,1858.09,279.392,1856.644,279.51,1855.188z M303.205,1896.384
			c-5.976,1.643-11.16,2.349-15.594,2.348c-4.644,0-8.461-0.768-11.583-2.03c-2.343-0.949-4.302-2.177-5.951-3.615
			c-1.236-1.079-2.298-2.278-3.204-3.579c-1.357-1.948-2.361-4.127-3.027-6.442c-0.667-2.313-0.992-4.762-0.992-7.214
			c0-2.804,0.426-5.61,1.224-8.209c0.598-1.949,1.403-3.781,2.378-5.412c0.731-1.223,1.557-2.333,2.457-3.302
			c0.482-0.519,0.985-0.996,1.506-1.43c1.127-0.771,1.564,0.472,1.554,1.299c-0.003,0.241-0.004,0.482-0.004,0.724
			c0,3.991,0.407,7.938,1.28,11.767c0.873,3.828,2.215,7.537,4.079,11.031c0.887,1.663,1.915,3.126,3.062,4.382
			c1.718,1.885,3.709,3.296,5.819,4.212c2.11,0.919,4.327,1.344,6.496,1.343c2.314-0.001,4.574-0.477,6.665-1.331
			c1.568-0.642,3.044-1.496,4.385-2.538c0.561-0.436,1.098-0.906,1.606-1.408c0.517-0.51,1.851-0.021,2.055,0.761
			c0.623,2.39,1.306,4.646,2.039,6.677C307.284,1895.18,305.2,1895.835,303.205,1896.384z M303.967,1853.895
			c-0.157,0.956-0.266,2.044-0.33,3.239c-0.037,0.704-1.032,1.253-1.552,0.776c-0.466-0.428-0.952-0.853-1.458-1.275
			c-2.676-2.228-5.92-4.375-9.81-6.419c-2.06-1.082-4.096-1.885-6.099-2.418c-1.35-0.359-2.683-0.592-3.994-0.708
			c0.056-0.255,0.113-0.511,0.171-0.767c1.385-6.027,3.656-12.05,6.609-17.712c0.31,0.165,0.62,0.328,0.932,0.486
			c3.139,1.589,6.375,2.857,9.657,3.732s6.61,1.357,9.919,1.357c2.865,0,5.716-0.363,8.486-1.147
			c2.022-0.572,3.821-1.363,5.384-2.359c1.171-0.746,2.208-1.608,3.092-2.563c1.33-1.432,2.311-3.073,2.938-4.79
			c0.63-1.719,0.913-3.508,0.913-5.273c-0.001-2.452-0.537-4.864-1.466-7.118c-0.699-1.69-1.622-3.296-2.739-4.768
			c-1.676-2.205-3.79-4.119-6.275-5.51c-1.243-0.694-2.579-1.256-3.991-1.643c-1.412-0.388-2.9-0.601-4.431-0.601
			c-2.379-0.002-4.854,0.52-7.268,1.617c-2.417,1.096-4.771,2.754-7.007,4.991c-3.966,3.969-7.57,8.481-10.708,13.355
			c-1.97-1.406-3.878-2.955-5.69-4.625c-4.174-3.848-7.836-8.326-10.621-13.07c-2.788-4.744-4.692-9.748-5.437-14.643
			c-0.266-1.746-0.39-3.394-0.39-4.945c0.001-3.41,0.595-6.341,1.603-8.835c0.756-1.871,1.747-3.499,2.921-4.903
			c1.762-2.104,3.943-3.713,6.408-4.811c2.463-1.095,5.209-1.671,8.057-1.671c1.675,0,3.384,0.202,5.088,0.61
			c-0.849,5.251-1.033,10.71-0.521,16.092c0.5,5.287,1.674,10.498,3.546,15.362c13.476-0.097,50.5-9.514,65.078-27.455
			c-2.061-4.688-4.82-9.144-8.084-13.199c-0.537-0.671-1.087-1.329-1.653-1.975c-0.027-0.03-0.054-0.059-0.08-0.092
			c-2.478-2.942-4.051-17.23,11.76-15.358c1.844,0.218,3.777,0.437,5.783,0.651c1.075,15.405-10.439,68.936-16.93,86.414
			C339.667,1838.403,329.604,1846.366,303.967,1853.895z M291.701,1821.495c2.731-4.121,5.82-7.93,9.155-11.265
			c1.702-1.701,3.333-2.808,4.842-3.493c1.512-0.683,2.905-0.957,4.228-0.959c0.757,0,1.493,0.092,2.214,0.268
			c1.26,0.307,2.477,0.873,3.604,1.658c0.845,0.587,1.635,1.297,2.34,2.093c1.059,1.194,1.921,2.586,2.502,4.019
			c0.583,1.432,0.882,2.897,0.881,4.24c0,0.875-0.124,1.698-0.366,2.458c-0.183,0.569-0.431,1.105-0.757,1.614
			c-0.491,0.763-1.153,1.475-2.092,2.131c-0.939,0.654-2.163,1.248-3.756,1.699c-2.07,0.585-4.236,0.869-6.482,0.869
			c-2.304,0-4.69-0.299-7.113-0.878c-2.996-0.715-6.045-1.86-9.043-3.371C291.641,1822.469,291.536,1821.744,291.701,1821.495z"/>
		<g>
			<g id="XMLID_1_">
				<path fill="#766A5B" d="M521.03,1889.99l0.42,0.12c-2.08,7.2-4.73,12.78-7.57,13.84c-7.57,2.84-67.65,6.31-99.12,6.31
					c-31.47,0-91.55-3.47-99.12-6.31c-1.04-0.39-2.06-1.39-3.02-2.85l-3.16-6.68c-0.5-1.38-0.98-2.87-1.42-4.43
					c6.65,6.65,37.36,13.01,106.49,13.01C483.67,1903,514.37,1896.64,521.03,1889.99z"/>
				<path fill="#6E6355" d="M262.63,1896.01c8.69,6.63,24.95,11.82,45.27,6.66c-0.93,0.3-1.84,0.56-2.74,0.81
					c-6.51,1.79-12.34,2.61-17.55,2.61c-4.6,0-8.73-0.64-12.37-1.84c-3.64-1.2-6.8-2.96-9.43-5.13
					C264.65,1898.16,263.58,1897.12,262.63,1896.01z"/>
				<path fill="#6A6052" d="M277.33,1882.32c5.18,5.17,11.83,9.08,24.73,7.22c-0.86,0.55-1.76,1-2.69,1.38
					c-2.09,0.86-4.35,1.33-6.66,1.33c-2.17,0.01-4.39-0.42-6.5-1.34c-2.11-0.91-4.1-2.32-5.82-4.21
					C279.24,1885.44,278.22,1883.98,277.33,1882.32z"/>
				<path fill="#766A5B" d="M273.07,1847.84c-0.9,3.97-1.04,9.59-1.04,14.17c-0.04-0.82-0.06-1.66-0.06-2.49
					c0-0.24,0-0.48,0.01-0.72c0.01-0.83-0.43-2.07-1.56-1.3c-0.52,0.43-1.02,0.91-1.5,1.43c-0.91,0.97-1.73,2.08-2.46,3.3
					c-0.98,1.63-1.78,3.46-2.38,5.41c-0.8,2.6-1.23,5.41-1.22,8.21c0,2.45,0.32,4.9,0.99,7.22c0.66,2.31,1.67,4.49,3.02,6.44
					c0.91,1.3,1.97,2.5,3.21,3.58c1.65,1.43,3.61,2.66,5.95,3.61c3.12,1.26,6.94,2.03,11.58,2.03c4.44,0,9.62-0.7,15.6-2.35
					c1.99-0.54,4.07-1.2,6.25-1.96l3.16,6.68c-1.61,0.58-3.19,1.11-4.72,1.57c-20.32,5.16-36.58-0.03-45.27-6.66
					c-0.49-0.55-0.95-1.12-1.38-1.71c-1.71-2.33-3.02-4.88-3.95-7.53c-1.23-3.53-1.8-7.25-1.8-10.92c0-3.49,0.51-6.95,1.5-10.21
					c0.98-3.26,2.43-6.34,4.35-9.04c1.27-1.8,2.76-3.43,4.44-4.83C267.91,1850.02,270.36,1848.65,273.07,1847.84z"/>
				<path fill="#6E6355" d="M279.51,1855.19c-0.12,1.45-0.18,2.9-0.18,4.33c0,3.49,0.36,6.89,1.1,10.13
					c0.74,3.24,1.86,6.32,3.39,9.2c0.94,1.75,1.99,3.01,3.08,3.92c1.1,0.91,2.23,1.48,3.41,1.8c0.78,0.22,1.58,0.32,2.4,0.32
					c1.46,0.01,2.95-0.34,4.34-0.98c1.39-0.65,2.67-1.59,3.68-2.73c0.68-0.77,1.24-1.62,1.66-2.53c0.56-1.22,0.87-2.54,0.88-3.98
					c-0.01-1.33-0.27-2.76-0.92-4.32s-1.7-3.26-3.28-5.04c-1.06-1.18-2.35-2.4-3.91-3.63c-2.09-1.65-4.65-3.31-7.77-4.95
					c-1.62-0.85-3.14-1.44-4.56-1.82c-0.75-0.2-1.46-0.34-2.15-0.42C280.31,1854.44,279.51,1854.37,279.51,1855.19z M280.73,1847.09
					c1.31,0.12,2.64,0.35,3.99,0.71c2,0.53,4.04,1.33,6.1,2.42c3.89,2.04,7.13,4.19,9.81,6.41c0.5,0.43,0.99,0.85,1.46,1.28
					c4.25,4.25,11.63,15.88,3.27,29.07c-0.51,0.5-1.04,0.97-1.6,1.41c-0.54,0.42-1.11,0.81-1.7,1.15
					c-12.9,1.86-19.55-2.05-24.73-7.22c-1.86-3.5-3.21-7.2-4.08-11.03c-0.68-3.01-1.08-6.09-1.22-9.21c0-0.02,0-0.05,0-0.07
					c0-4.58,0.14-10.2,1.04-14.17c0.19-1.06,0.41-2.11,0.65-3.17c1.14-4.93,2.79-9.81,4.87-14.51c0.81-1.83,1.69-3.63,2.62-5.4
					c0,0,3,2.24,6.3,3.85c-2.96,5.66-5.23,11.69-6.61,17.71C280.84,1846.58,280.78,1846.83,280.73,1847.09z"/>
				<path fill="#6E6355" d="M292.51,1830.95c8.53,2.55,27.45,1.12,34.78-6.19c-0.58,1.2-1.36,2.33-2.31,3.36
					c-0.89,0.95-1.92,1.82-3.1,2.56c-1.56,1-3.36,1.79-5.38,2.36c-2.77,0.78-5.62,1.15-8.49,1.15c-3.31,0-6.63-0.48-9.92-1.36
					C296.21,1832.33,294.35,1831.7,292.51,1830.95z"/>
				<path fill="#766A5B" d="M284.94,1818.38c2.29-3.55,4.83-6.91,7.57-10.01c0.01-0.01,0.01-0.01,0.02-0.02
					c6.51-6.2,24.87-11.8,34.83,2.59c0.93,2.25,1.47,4.66,1.47,7.12c0,1.76-0.28,3.55-0.91,5.27c-0.18,0.49-0.38,0.96-0.62,1.43
					h-0.01c-7.33,7.31-26.25,8.74-34.78,6.19c-1.37-0.55-2.73-1.17-4.07-1.85c-0.31-0.16-0.62-0.32-0.93-0.49
					c-3.3-1.61-6.3-3.85-6.3-3.85c-3.56-2.49-6.93-5.38-9.98-8.57c-3.36-3.52-6.34-7.4-8.79-11.52c-3.27-5.5-5.59-11.43-6.52-17.52
					c-0.32-2.09-0.47-4.11-0.47-6.05c-0.01-4.81,0.95-9.14,2.68-12.86c0.88-1.89,1.96-3.62,3.2-5.17c11-8.6,22.17-7.24,26.27-5.29
					h0.01c-0.28,1.22-0.52,2.46-0.73,3.71c-1.7-0.41-3.41-0.61-5.09-0.61c-2.84,0-5.59,0.57-8.05,1.67c-2.47,1.1-4.65,2.7-6.41,4.81
					c-1.18,1.4-2.17,3.03-2.92,4.9c-1.01,2.5-1.6,5.43-1.6,8.84c0,1.55,0.12,3.2,0.39,4.94c0.74,4.9,2.64,9.9,5.43,14.65
					c2.79,4.74,6.45,9.22,10.62,13.07C281.06,1815.43,282.97,1816.97,284.94,1818.38z M291.7,1821.49
					c-0.16,0.25-0.06,0.98,0.16,1.09c3,1.51,6.05,2.65,9.04,3.37c2.42,0.58,4.81,0.88,7.11,0.88c2.25,0,4.42-0.29,6.49-0.87
					c1.59-0.45,2.81-1.05,3.75-1.7c0.94-0.66,1.6-1.37,2.09-2.13c0.33-0.51,0.58-1.05,0.76-1.62c0.24-0.76,0.37-1.58,0.37-2.45
					c0-1.35-0.3-2.81-0.88-4.24c-0.58-1.44-1.45-2.83-2.51-4.02c-0.7-0.8-1.49-1.51-2.34-2.1c-1.12-0.78-2.34-1.35-3.6-1.65
					c-0.72-0.18-1.46-0.27-2.21-0.27c-1.33,0-2.72,0.27-4.23,0.96c-1.51,0.68-3.14,1.79-4.84,3.49
					C297.52,1813.56,294.43,1817.37,291.7,1821.49z"/>
				<path fill="#766A5B" d="M331.65,1781.99c-15.62,7.18-33.3,10.89-41.74,10.95c-1.17-3.02-2.06-6.17-2.69-9.39
					C290.34,1789.31,317.78,1787.49,331.65,1781.99z"/>
				<path fill="#766A5B" d="M542.3,1783.55c-0.63,3.22-1.52,6.37-2.68,9.39c-8.44-0.06-26.13-3.77-41.75-10.95
					C511.74,1787.49,539.19,1789.31,542.3,1783.55z"/>
			</g>
		</g>
		<path fill="none" stroke="#393122" stroke-linecap="round" stroke-linejoin="round" d="M517.035,1873.419
			c-35.67,5.099-71.498,6.903-102.274,6.903c-30.889,0-66.866-1.817-102.665-6.959"/>
	</g>
	<path fill="#393122" d="M484.275,1750.314c-0.566,0.646-1.117,1.304-1.653,1.975c14.614,15.548,45.958,24.17,60.54,25.292
		c1.722-18.137-4.448-37.165-17.361-46.082C488.788,1712.15,436.212,1705,414.761,1705c-21.451,0-74.026,7.15-111.04,26.498
		c-12.913,8.917-19.083,27.945-17.36,46.082c14.583-1.121,45.926-9.744,60.54-25.292c-0.537-0.671-1.087-1.329-1.653-1.975
		c-0.027-0.03-0.054-0.059-0.08-0.092c-2.478-2.942-4.051-17.23,11.76-15.358c1.844,0.218,3.777,0.437,5.783,0.651
		c1.075,15.405-10.439,68.936-16.93,86.414c-5.468,14.73-14.092,22.656-34.182,29.551c-2.379,0.816-1.42,3.371,1.689,3.811
		c35.405,5.012,70.927,6.789,101.473,6.789s66.066-1.776,101.472-6.788c3.109-0.44,4.068-2.995,1.689-3.812
		c-20.09-6.895-28.714-14.82-34.182-29.551c-6.49-17.479-18.004-71.009-16.929-86.414c2.006-0.214,3.939-0.433,5.783-0.651
		c15.811-1.872,14.237,12.416,11.76,15.358C484.33,1750.255,484.302,1750.284,484.275,1750.314z M414.761,1738.648
		c11.567,0,24.439-0.692,36.343-1.657c0.085,4.474-0.61,11.272-1.792,19.168c-9.457-6.368-21.468-10.188-34.55-10.188
		s-25.093,3.819-34.55,10.188c-1.183-7.896-1.878-14.694-1.792-19.168C390.322,1737.957,403.195,1738.648,414.761,1738.648z"/>
	<path fill="#352E1F" d="M535.84,1742.41l-0.33,0.2c-6.69-6.7-15.11-14.28-27.45-6.94c-12.33,7.33-17.66,4-21.66,0
		s-19-26.67-34.67-22.34c-15.67,4.34-29.73,4.67-37.2,4.67c-7.47,0-21.53-0.33-37.2-4.67c-15.66-4.33-30.66,18.34-34.66,22.34
		s-9.34,7.33-21.67,0c-12.31-7.33-20.73,0.22-27.42,6.91c-0.01,0.01-0.01,0.01-0.02,0.02c-0.13,0.21-0.26,0.43-0.38,0.65
		c-0.07,0.11-0.13,0.22-0.19,0.33c-0.18,0.32-0.36,0.64-0.54,0.97c-0.23,0.43-0.46,0.87-0.68,1.32c-0.38,0.76-0.74,1.55-1.08,2.34
		c-0.07,0.15-0.14,0.31-0.2,0.48c-0.12,0.29-0.24,0.58-0.35,0.87c-0.42,1.03-0.8,2.08-1.14,3.15c-0.16,0.47-0.3,0.94-0.44,1.41
		c-0.02,0.06-0.04,0.13-0.06,0.19c-0.33,1.14-0.63,2.3-0.89,3.47c-0.28,1.22-0.52,2.46-0.73,3.71c-0.06,0.35-0.11,0.71-0.16,1.06
		c-0.21,1.46-0.37,2.95-0.48,4.44c0,0.04-0.01,0.08,0,0.11c-0.03,0.42-0.06,0.84-0.08,1.27c-0.03,0.57-0.05,1.13-0.06,1.69
		c-0.01,0.5-0.02,1-0.02,1.5c0,2.01,0.09,4.02,0.28,6.02c14.58-1.12,45.93-9.74,60.54-25.29c-0.54-0.67-1.09-1.33-1.65-1.98
		c-0.03-0.03-0.06-0.06-0.08-0.09c-2.48-2.94-4.05-17.23,11.76-15.36c1.84,0.22,3.78,0.44,5.78,0.65
		c0.58,8.28-2.47,27.55-6.43,46.32c-1.93,9.16-4.08,18.21-6.12,25.8c8.17,19.04,26.7,41.37,64.6,41.37
		c37.91,0,56.43-22.33,64.6-41.37c-2.04-7.59-4.18-16.63-6.12-25.79c-3.95-18.78-7-38.05-6.43-46.33c2.01-0.21,3.94-0.43,5.78-0.65
		c15.82-1.87,14.24,12.42,11.76,15.36c-0.02,0.03-0.05,0.06-0.08,0.09c-0.56,0.65-1.11,1.31-1.65,1.98
		c14.62,15.55,45.96,24.17,60.54,25.29C544.35,1765.08,541.78,1752.15,535.84,1742.41z M414.76,1738.65
		c11.57,0,24.44-0.69,36.34-1.66c0.08,4.05-0.49,10.01-1.47,16.97c-0.1,0.72-0.21,1.46-0.32,2.2c-9.46-6.37-21.47-10.19-34.55-10.19
		c-13.08,0-25.09,3.82-34.55,10.19c-0.11-0.74-0.22-1.48-0.32-2.2c-0.98-6.96-1.55-12.92-1.47-16.97
		C390.32,1737.96,403.19,1738.65,414.76,1738.65z"/>
	<g>
		<ellipse fill="#9E917B" cx="414.761" cy="1792.152" rx="55.171" ry="46.18"/>
		<path fill="#8C816D" d="M465.813,1796.501c-1.321-4.897-6.877-4.897-8.703-4.897c-1.69,0-3.413,0.163-5.078,0.319l-0.251,0.024
			c-0.233,0.022-0.466,0.033-0.692,0.033c-4.261,0-6.4-3.94-6.992-6.269c-0.073-0.285-0.118-0.679,0.079-0.931
			c0.16-0.206,0.49-0.333,0.862-0.333c0.469,0,1.035,0.211,1.169,0.674c0.007,0.023,0.015,0.046,0.023,0.069
			c1.13,3.044,3.479,4.79,6.444,4.79c2.062,0,4.273-0.88,5.634-2.243c1.205-1.204,2.516-1.895,3.596-1.895
			c0.27,0,0.532,0.042,0.778,0.126c0.241,0.083,0.5,0.125,0.767,0.125c0.707,0,1.367-0.292,1.766-0.779
			c0.347-0.424,0.477-0.963,0.364-1.516c-4.208-20.792-25.579-35.883-50.817-35.883c-28.421,0-51.544,19.356-51.544,43.147
			c0,23.79,23.123,43.145,51.544,43.145c25.671,0,47.628-16.029,51.073-37.285C465.857,1796.781,465.85,1796.638,465.813,1796.501z
			 M414.761,1816.062c3.845,0,6.973,2.535,6.973,5.65c0,3.114-3.128,5.647-6.973,5.647s-6.973-2.533-6.973-5.647
			C407.789,1818.597,410.917,1816.062,414.761,1816.062z M414.761,1766.061c-3.845,0-6.973-2.534-6.973-5.65
			c0-3.114,3.128-5.648,6.973-5.648s6.973,2.534,6.973,5.648C421.734,1763.526,418.606,1766.061,414.761,1766.061z
			 M446.625,1811.875c-3.845,0-6.973-2.534-6.973-5.648c0-3.116,3.128-5.65,6.973-5.65c3.846,0,6.975,2.534,6.975,5.65
			C453.599,1809.341,450.47,1811.875,446.625,1811.875z M433.209,1811.795c3.845,0,6.973,2.533,6.973,5.647
			c0,3.116-3.128,5.65-6.973,5.65s-6.973-2.535-6.973-5.65C426.236,1814.328,429.364,1811.795,433.209,1811.795z M433.14,1770.166
			c-3.845,0-6.973-2.534-6.973-5.648s3.128-5.647,6.973-5.647c3.846,0,6.975,2.533,6.975,5.647S436.985,1770.166,433.14,1770.166z
			 M414.761,1775.116c10.654,0,19.322,7.153,19.322,15.946c0,8.792-8.668,15.944-19.322,15.944s-19.321-7.152-19.321-15.944
			C395.44,1782.27,404.107,1775.116,414.761,1775.116z M396.315,1811.795c3.845,0,6.973,2.533,6.973,5.647
			c0,3.116-3.128,5.65-6.973,5.65s-6.972-2.535-6.972-5.65C389.343,1814.328,392.471,1811.795,396.315,1811.795z M382.928,1800.577
			c3.846,0,6.975,2.534,6.975,5.65c0,3.114-3.129,5.648-6.975,5.648c-3.845,0-6.973-2.534-6.973-5.648
			C375.955,1803.111,379.083,1800.577,382.928,1800.577z M378.005,1796.71c-3.846,0-6.975-2.533-6.975-5.647
			c0-3.116,3.129-5.65,6.975-5.65c3.844,0,6.972,2.535,6.972,5.65C384.977,1794.177,381.849,1796.71,378.005,1796.71z
			 M382.928,1770.088c3.846,0,6.975,2.533,6.975,5.647c0,3.115-3.129,5.65-6.975,5.65c-3.845,0-6.973-2.535-6.973-5.65
			C375.955,1772.621,379.083,1770.088,382.928,1770.088z M396.383,1770.166c-3.846,0-6.975-2.534-6.975-5.648
			s3.129-5.647,6.975-5.647c3.845,0,6.973,2.533,6.973,5.647S400.228,1770.166,396.383,1770.166z"/>
		<path fill="#393122" d="M451.874,1792.942c-5.218,0.492-7.979-3.966-8.747-6.984c-0.766-3.018,3.428-3.222,4.04-1.116
			c2.149,5.789,8.132,4.492,10.433,2.189c1.579-1.578,3.591-2.626,5.404-2.008c0.719,0.246,1.77-0.161,1.594-1.026
			c-4.03-19.915-24.809-35.081-49.837-35.081c-27.916,0-50.544,18.869-50.544,42.147c0,23.276,22.628,42.145,50.544,42.145
			c25.598,0,46.75-15.865,50.086-36.445C463.499,1791.765,457.089,1792.452,451.874,1792.942z M433.14,1757.87
			c4.404,0,7.975,2.976,7.975,6.647s-3.571,6.648-7.975,6.648s-7.973-2.976-7.973-6.648S428.736,1757.87,433.14,1757.87z
			 M435.083,1791.063c0,9.356-9.098,16.944-20.322,16.944c-11.224,0-20.321-7.587-20.321-16.944c0-9.359,9.098-16.946,20.321-16.946
			C425.985,1774.116,435.083,1781.704,435.083,1791.063z M414.761,1753.763c4.404,0,7.973,2.976,7.973,6.648s-3.569,6.65-7.973,6.65
			s-7.973-2.978-7.973-6.65S410.357,1753.763,414.761,1753.763z M396.383,1757.87c4.404,0,7.973,2.976,7.973,6.647
			s-3.569,6.648-7.973,6.648s-7.975-2.976-7.975-6.648S391.979,1757.87,396.383,1757.87z M382.928,1769.088
			c4.404,0,7.975,2.976,7.975,6.647s-3.571,6.65-7.975,6.65s-7.973-2.978-7.973-6.65S378.524,1769.088,382.928,1769.088z
			 M370.03,1791.063c0-3.672,3.571-6.65,7.975-6.65c4.401,0,7.972,2.979,7.972,6.65s-3.571,6.647-7.972,6.647
			C373.601,1797.71,370.03,1794.734,370.03,1791.063z M374.955,1806.227c0-3.672,3.569-6.65,7.973-6.65s7.975,2.978,7.975,6.65
			s-3.571,6.648-7.975,6.648S374.955,1809.899,374.955,1806.227z M396.315,1824.093c-4.403,0-7.972-2.979-7.972-6.65
			s3.569-6.647,7.972-6.647c4.404,0,7.973,2.976,7.973,6.647S400.719,1824.093,396.315,1824.093z M414.761,1828.359
			c-4.404,0-7.973-2.976-7.973-6.647s3.569-6.65,7.973-6.65s7.973,2.978,7.973,6.65S419.165,1828.359,414.761,1828.359z
			 M433.209,1824.093c-4.404,0-7.973-2.979-7.973-6.65s3.569-6.647,7.973-6.647s7.973,2.976,7.973,6.647
			S437.613,1824.093,433.209,1824.093z M446.625,1812.875c-4.404,0-7.973-2.976-7.973-6.648s3.569-6.65,7.973-6.65
			s7.975,2.978,7.975,6.65S451.028,1812.875,446.625,1812.875z"/>
		<path fill="#3F3727" d="M457.11,1793.6c-1.6,0-3.27,0.16-4.89,0.31l-0.25,0.03c-0.3,0.03-0.59,0.04-0.88,0.04
			c-5.49,0-8.2-4.89-8.93-7.78c-0.33-1.3,0.05-2.16,0.44-2.65c0.54-0.7,1.43-1.1,2.44-1.1c1.46,0,2.69,0.83,3.08,2.07
			c1.07,2.86,3.06,3.46,4.55,3.46c1.77,0,3.4-0.83,4.22-1.66c1.6-1.6,3.38-2.48,5.01-2.48c0.49,0,0.97,0.08,1.43,0.24
			c0.03,0.01,0.07,0.01,0.12,0.01c0.05,0,0.1-0.01,0.14-0.02c-1.94-9.4-7.83-18.02-16.62-24.27c-8.95-6.36-20.38-9.87-32.18-9.88
			c-0.01,0-0.02,0-0.03,0c-27.32,0-49.54,18.45-49.54,41.14c0,22.68,22.21,41.14,49.52,41.15c0.01,0,0.01,0,0.02,0
			c24.61,0,45.66-15.2,49.06-35.39C463.12,1794.6,461.04,1793.6,457.11,1793.6z M433.14,1756.87c4.95,0,8.97,3.43,8.97,7.65
			c0,4.21-4.02,7.65-8.97,7.65c-4.95,0-8.97-3.44-8.97-7.65C424.17,1760.3,428.19,1756.87,433.14,1756.87z M436.08,1791.06
			c0,9.9-9.56,17.95-21.32,17.95c-11.76,0-21.32-8.05-21.32-17.95c0-9.89,9.56-17.94,21.32-17.94
			C426.52,1773.12,436.08,1781.17,436.08,1791.06z M414.76,1752.76c4.95,0,8.97,3.43,8.97,7.65c0,4.22-4.02,7.65-8.97,7.65
			c-4.32,0-7.93-2.61-8.78-6.08c-0.12-0.51-0.19-1.03-0.19-1.57C405.79,1756.19,409.81,1752.76,414.76,1752.76z M396.38,1756.87
			c4.02,0,7.44,2.26,8.58,5.38c0.26,0.72,0.4,1.48,0.4,2.27c0,4.21-4.03,7.65-8.98,7.65c-2.48,0-4.72-0.86-6.34-2.25
			c-1.62-1.38-2.63-3.3-2.63-5.4C387.41,1760.3,391.43,1756.87,396.38,1756.87z M382.93,1768.09c2.32,0,4.44,0.75,6.03,1.99
			c1.81,1.4,2.94,3.42,2.94,5.66c0,4.21-4.02,7.65-8.97,7.65c-1.39,0-2.71-0.27-3.89-0.76c-3-1.24-5.08-3.86-5.08-6.89
			C373.96,1771.52,377.98,1768.09,382.93,1768.09z M369.03,1791.06c0-4.22,4.03-7.65,8.97-7.65c0.32,0,0.64,0.01,0.95,0.04
			c4.5,0.41,8.03,3.66,8.03,7.61c0,3.94-3.52,7.19-8.01,7.61c-0.32,0.03-0.64,0.04-0.97,0.04
			C373.06,1798.71,369.03,1795.28,369.03,1791.06z M373.96,1806.23c0-3.03,2.08-5.66,5.08-6.89c1.18-0.49,2.5-0.76,3.89-0.76
			c4.95,0,8.97,3.43,8.97,7.65c0,2.24-1.13,4.26-2.94,5.65c-1.59,1.24-3.71,2-6.03,2C377.98,1813.88,373.96,1810.44,373.96,1806.23z
			 M396.32,1825.09c-4.95,0-8.98-3.43-8.98-7.65c0-2.1,1.01-4.02,2.63-5.4c1.63-1.39,3.87-2.25,6.35-2.25
			c4.94,0,8.97,3.44,8.97,7.65c0,0.92-0.19,1.81-0.55,2.63C403.48,1823,400.18,1825.09,396.32,1825.09z M414.76,1829.36
			c-4.95,0-8.97-3.43-8.97-7.65c0-0.53,0.06-1.04,0.18-1.54c0.84-3.48,4.46-6.11,8.79-6.11c4.95,0,8.97,3.43,8.97,7.65
			C423.73,1825.93,419.71,1829.36,414.76,1829.36z M433.21,1825.09c-4.95,0-8.97-3.43-8.97-7.65c0-4.21,4.02-7.65,8.97-7.65
			s8.97,3.44,8.97,7.65C442.18,1821.66,438.16,1825.09,433.21,1825.09z M446.62,1813.88c-4.94,0-8.97-3.44-8.97-7.65
			c0-4.22,4.03-7.65,8.97-7.65c4.95,0,8.98,3.43,8.98,7.65C455.6,1810.44,451.57,1813.88,446.62,1813.88z"/>
	</g>
</g>
</svg>
