<?xml version="1.0" encoding="utf-8"?>
<!-- Generator: Adobe Illustrator 14.0.0, SVG Export Plug-In . SVG Version: 6.00 Build 43363)  -->
<!DOCTYPE svg PUBLIC "-//W3C//DTD SVG 1.1//EN" "http://www.w3.org/Graphics/SVG/1.1/DTD/svg11.dtd">
<svg version="1.1" id="Layer_2" xmlns="http://www.w3.org/2000/svg" xmlns:xlink="http://www.w3.org/1999/xlink" x="0px" y="0px"
	 width="4320px" height="4320px" viewBox="0 0 4320 4320" enable-background="new 0 0 4320 4320" xml:space="preserve">
<g>
	<path fill="#7C6F60" d="M543.445,2393.469c-0.028-16.161-6.178-32.053-17.644-39.971C488.788,2334.15,436.212,2327,414.761,2327
		c-21.451,0-74.026,7.15-111.04,26.498c-7.294,5.037-12.437,13.302-15.221,22.81c-2.23-0.526-4.481-0.79-6.707-0.79
		c-3.412,0-6.766,0.612-9.888,1.823c-2.341,0.908-4.551,2.153-6.546,3.726c-2.994,2.356-5.498,5.454-7.228,9.176
		c-1.733,3.721-2.688,8.053-2.687,12.855c0,1.942,0.155,3.962,0.474,6.055c0.931,6.089,3.255,12.022,6.518,17.519
		c2.45,4.122,5.433,8.001,8.793,11.517c3.051,3.189,6.415,6.08,9.984,8.571c-0.935,1.769-1.812,3.569-2.622,5.398
		c-2.083,4.703-3.735,9.583-4.87,14.517c-0.242,1.054-0.459,2.109-0.653,3.167c-2.713,0.812-5.161,2.182-7.275,3.93
		c-1.689,1.396-3.171,3.03-4.447,4.83c-1.914,2.701-3.367,5.774-4.353,9.038c-0.984,3.265-1.5,6.724-1.5,10.213
		c0,3.673,0.573,7.384,1.81,10.918c0.928,2.649,2.232,5.199,3.949,7.532c1.288,1.749,2.807,3.374,4.56,4.819
		c2.629,2.169,5.784,3.927,9.426,5.125c3.644,1.201,7.769,1.847,12.371,1.846c5.213,0,11.042-0.824,17.545-2.611
		c2.393-0.658,4.879-1.447,7.459-2.375c0.969,1.455,1.983,2.451,3.023,2.841c7.571,2.839,67.652,6.31,99.122,6.31
		s91.551-3.471,99.122-6.31c6.542-2.453,12.023-28.729,12.071-43.868c0.007-2.383-0.12-4.489-0.399-6.184
		c-25.636-7.529-35.699-15.491-41.814-31.966c-6.49-17.479-18.004-71.009-16.929-86.414c2.006-0.214,3.939-0.433,5.783-0.651
		c15.811-1.872,14.237,12.416,11.76,15.358c-0.025,0.033-0.053,0.063-0.08,0.093c-0.566,0.645-1.117,1.303-1.653,1.975
		c-3.264,4.055-6.023,8.511-8.084,13.198c14.578,17.94,51.602,27.358,65.078,27.455c1.872-4.864,3.045-10.075,3.546-15.362
		C543.355,2397.549,543.449,2395.507,543.445,2393.469z M414.761,2360.648c11.567,0,24.439-0.691,36.343-1.657
		c0.085,4.474-0.61,11.272-1.792,19.168c-9.457-6.368-21.468-10.188-34.55-10.188s-25.093,3.819-34.55,10.188
		c-1.183-7.896-1.878-14.694-1.792-19.168C390.322,2359.957,403.195,2360.648,414.761,2360.648z M279.51,2477.188
		c0-0.821,0.796-0.749,1.17-0.701c0.689,0.088,1.404,0.227,2.147,0.425c1.423,0.378,2.947,0.97,4.567,1.82
		c3.112,1.636,5.679,3.301,7.764,4.944c1.564,1.232,2.857,2.453,3.912,3.638c1.583,1.777,2.629,3.472,3.28,5.034
		c0.65,1.564,0.914,2.997,0.916,4.322c-0.001,1.438-0.313,2.761-0.873,3.979c-0.419,0.913-0.981,1.763-1.659,2.526
		c-1.014,1.145-2.291,2.088-3.681,2.73c-1.391,0.646-2.888,0.988-4.347,0.988c-0.812,0-1.614-0.104-2.397-0.32
		c-1.175-0.326-2.311-0.896-3.405-1.805c-1.092-0.91-2.147-2.17-3.08-3.916c-1.536-2.879-2.657-5.962-3.397-9.203
		c-0.739-3.24-1.095-6.639-1.095-10.129C279.332,2480.09,279.392,2478.645,279.51,2477.188z M303.205,2518.384
		c-5.976,1.643-11.16,2.349-15.594,2.348c-4.644-0.001-8.461-0.768-11.583-2.03c-2.343-0.949-4.302-2.177-5.951-3.615
		c-1.236-1.078-2.298-2.277-3.204-3.578c-1.357-1.948-2.361-4.127-3.027-6.442c-0.667-2.313-0.992-4.762-0.992-7.214
		c0-2.804,0.426-5.61,1.224-8.209c0.598-1.949,1.403-3.781,2.378-5.412c0.731-1.223,1.557-2.332,2.457-3.302
		c0.482-0.519,0.985-0.995,1.506-1.431c1.127-0.771,1.564,0.473,1.554,1.299c-0.003,0.242-0.004,0.482-0.004,0.725
		c0,3.99,0.407,7.938,1.28,11.766s2.215,7.537,4.079,11.031c0.887,1.663,1.915,3.126,3.062,4.382
		c1.718,1.886,3.709,3.296,5.819,4.212c2.11,0.919,4.327,1.344,6.496,1.343c2.314-0.001,4.574-0.477,6.665-1.331
		c1.568-0.642,3.044-1.496,4.385-2.537c0.561-0.437,1.098-0.906,1.606-1.408c0.517-0.51,1.851-0.021,2.055,0.761
		c0.623,2.39,1.306,4.646,2.039,6.677C307.284,2517.18,305.2,2517.836,303.205,2518.384z M303.967,2475.895
		c-0.157,0.956-0.266,2.044-0.33,3.238c-0.037,0.705-1.032,1.254-1.552,0.777c-0.466-0.428-0.952-0.854-1.458-1.275
		c-2.676-2.228-5.92-4.375-9.81-6.419c-2.06-1.082-4.096-1.886-6.099-2.418c-1.35-0.359-2.683-0.592-3.994-0.708
		c0.056-0.255,0.113-0.511,0.171-0.767c1.385-6.027,3.656-12.05,6.609-17.712c0.31,0.164,0.62,0.328,0.932,0.486
		c3.139,1.589,6.375,2.857,9.657,3.732s6.61,1.357,9.919,1.357c2.865,0,5.716-0.363,8.486-1.146
		c2.022-0.572,3.821-1.363,5.384-2.359c1.171-0.746,2.208-1.607,3.092-2.563c1.33-1.432,2.311-3.072,2.938-4.79
		c0.63-1.719,0.913-3.508,0.913-5.273c-0.001-2.452-0.537-4.864-1.466-7.118c-0.699-1.69-1.622-3.296-2.739-4.768
		c-1.676-2.205-3.79-4.119-6.275-5.51c-1.243-0.694-2.579-1.256-3.991-1.643c-1.412-0.388-2.9-0.601-4.431-0.601
		c-2.379-0.002-4.854,0.52-7.268,1.617c-2.417,1.096-4.771,2.755-7.007,4.991c-3.966,3.969-7.57,8.481-10.708,13.355
		c-1.97-1.406-3.878-2.955-5.69-4.625c-4.174-3.848-7.836-8.326-10.621-13.07c-2.788-4.744-4.692-9.748-5.437-14.643
		c-0.266-1.746-0.39-3.395-0.39-4.945c0.001-3.41,0.595-6.341,1.603-8.835c0.756-1.87,1.747-3.499,2.921-4.903
		c1.762-2.104,3.943-3.713,6.408-4.811c2.463-1.095,5.209-1.671,8.057-1.671c1.675,0,3.384,0.202,5.088,0.61
		c-0.849,5.251-1.033,10.71-0.521,16.092c0.5,5.287,1.674,10.498,3.546,15.362c13.476-0.097,50.5-9.515,65.078-27.455
		c-2.061-4.688-4.82-9.144-8.084-13.198c-0.537-0.672-1.087-1.33-1.653-1.975c-0.027-0.03-0.054-0.06-0.08-0.093
		c-2.478-2.942-4.051-17.23,11.76-15.358c1.844,0.219,3.777,0.438,5.783,0.651c1.075,15.405-10.439,68.936-16.93,86.414
		C339.667,2460.403,329.604,2468.365,303.967,2475.895z M291.701,2443.494c2.731-4.121,5.82-7.93,9.155-11.264
		c1.702-1.701,3.333-2.809,4.842-3.493c1.512-0.683,2.905-0.957,4.228-0.96c0.757,0.001,1.493,0.093,2.214,0.269
		c1.26,0.307,2.477,0.873,3.604,1.657c0.845,0.588,1.635,1.297,2.34,2.094c1.059,1.194,1.921,2.586,2.502,4.019
		c0.583,1.432,0.882,2.897,0.881,4.24c0,0.876-0.124,1.698-0.366,2.458c-0.183,0.569-0.431,1.105-0.757,1.614
		c-0.491,0.763-1.153,1.475-2.092,2.131c-0.939,0.653-2.163,1.248-3.756,1.699c-2.07,0.585-4.236,0.868-6.482,0.868
		c-2.304,0.001-4.69-0.299-7.113-0.878c-2.996-0.715-6.045-1.86-9.043-3.37C291.641,2444.469,291.536,2443.744,291.701,2443.494z
		 M310.616,2239.256c-30.47,0-55.171,20.676-55.171,46.18c0,25.505,24.701,46.181,55.171,46.181s55.171-20.676,55.171-46.181
		C365.787,2259.932,341.086,2239.256,310.616,2239.256z"/>
	<path fill="none" stroke="#393122" stroke-linecap="round" stroke-linejoin="round" d="M517.035,2495.419
		c-35.67,5.099-71.498,6.903-102.274,6.903c-30.889,0-66.866-1.817-102.665-6.959"/>
</g>
</svg>
